<?xml version="1.0" encoding="UTF-8" standalone="no"?>
<!-- Generator: Adobe Illustrator 16.2.1, SVG Export Plug-In . SVG Version: 6.00 Build 0)  -->

<svg
   xmlns:dc="http://purl.org/dc/elements/1.1/"
   xmlns:cc="http://creativecommons.org/ns#"
   xmlns:rdf="http://www.w3.org/1999/02/22-rdf-syntax-ns#"
   xmlns:svg="http://www.w3.org/2000/svg"
   xmlns="http://www.w3.org/2000/svg"
   xmlns:sodipodi="http://sodipodi.sourceforge.net/DTD/sodipodi-0.dtd"
   xmlns:inkscape="http://www.inkscape.org/namespaces/inkscape"
   version="1.1"
   x="0px"
   y="0px"
   width="88px"
   height="44px"
   viewBox="0 0 88 44"
   enable-background="new 0 0 88 44"
   xml:space="preserve"
   id="svg2"
   inkscape:version="0.47pre4 r22446"
   sodipodi:docname="wink.svg"><metadata
   id="metadata16"><rdf:RDF><cc:Work
       rdf:about=""><dc:format>image/svg+xml</dc:format><dc:type
         rdf:resource="http://purl.org/dc/dcmitype/StillImage" /></cc:Work></rdf:RDF></metadata><defs
   id="defs14"><inkscape:perspective
     sodipodi:type="inkscape:persp3d"
     inkscape:vp_x="0 : 22 : 1"
     inkscape:vp_y="0 : 1000 : 0"
     inkscape:vp_z="88 : 22 : 1"
     inkscape:persp3d-origin="44 : 14.666667 : 1"
     id="perspective18" /></defs><sodipodi:namedview
   pagecolor="#ffffff"
   bordercolor="#666666"
   borderopacity="1"
   objecttolerance="10"
   gridtolerance="10"
   guidetolerance="10"
   inkscape:pageopacity="0"
   inkscape:pageshadow="2"
   inkscape:window-width="1022"
   inkscape:window-height="686"
   id="namedview12"
   showgrid="false"
   inkscape:zoom="5.7045455"
   inkscape:cx="44"
   inkscape:cy="22"
   inkscape:window-x="0"
   inkscape:window-y="29"
   inkscape:window-maximized="1"
   inkscape:current-layer="svg2" />
	<g
   id="g4"
   style="fill:#4d4d4d">
		<path
   fill="#0088CC"
   d="M20.5,22.25c0.552,0,1,0.448,1,1c0,0.343-0.185,0.631-0.447,0.812c0.292,0.12,0.611,0.188,0.947,0.188    c1.381,0,2.5-1.12,2.5-2.5s-1.119-2.5-2.5-2.5s-2.5,1.12-2.5,2.5c0,0.336,0.068,0.655,0.188,0.948    C19.869,22.434,20.157,22.25,20.5,22.25z"
   id="path6"
   style="fill:#4d4d4d" />
		<path
   fill="#0088CC"
   d="M22,14.75c-8.667,0-13,8-13,8s1.946,2.578,6,4.5c1.885,0.894,4.024,2,7,2c3.009,0,5.105-1.09,7-2    c4.008-1.924,6-4.5,6-4.5S30.667,14.75,22,14.75z M22,18.25c1.93,0,3.5,1.57,3.5,3.5s-1.57,3.5-3.5,3.5s-3.5-1.57-3.5-3.5    S20.07,18.25,22,18.25z M28.135,25.447l-0.299,0.143c-1.69,0.816-3.439,1.66-5.836,1.66c-2.354,0-4.114-0.839-5.816-1.651    l-0.326-0.156c-2.034-0.964-3.474-2.116-4.327-2.917c0.606-0.699,2.693-2.872,6.043-4.031C16.901,19.407,16.5,20.53,16.5,21.75    c0,3.037,2.463,5.5,5.5,5.5s5.5-2.463,5.5-5.5c0-1.218-0.4-2.339-1.07-3.25c3.367,1.173,5.43,3.377,5.999,4.049    C31.56,23.353,30.127,24.491,28.135,25.447z"
   id="path8"
   style="fill:#4d4d4d" />
	</g>
	<path
   fill="#0088CC"
   d="M77.896,21.985c-0.386,0.371-0.821,0.776-1.334,1.24c-0.441,0.417-1.666,1.466-3.58,2.379   c-0.04,0.019-0.078,0.036-0.118,0.055c-0.261,0.122-0.535,0.239-0.82,0.354c-0.007,0.002-0.014,0.006-0.019,0.008   c-0.73,0.291-1.54,0.547-2.427,0.745c-0.052,0.012-0.104,0.023-0.154,0.035c-0.17,0.036-0.343,0.071-0.518,0.103   C67.192,27.222,66,27.165,66,27.165s-1.192,0.057-2.927-0.262c-0.175-0.032-0.348-0.067-0.518-0.103   c-0.051-0.011-0.103-0.023-0.154-0.035c-0.887-0.198-1.696-0.455-2.427-0.745c-0.005-0.002-0.012-0.006-0.019-0.008   c-0.285-0.114-0.56-0.232-0.82-0.354c-0.039-0.019-0.078-0.036-0.118-0.055c-1.914-0.913-3.139-1.962-3.58-2.379   c-0.513-0.463-0.948-0.869-1.334-1.24C53.29,22.606,57.257,29.917,66,29.917S78.711,22.606,77.896,21.985z"
   id="path10"
   style="fill:#4d4d4d" />
</svg>